<?xml version='1.0' encoding='UTF-8' standalone='no'?>
<svg xmlns="http://www.w3.org/2000/svg" version="1.1" width="290" height="310" viewBox="220 270 290 310">
  <defs>
    <clipPath clipPathUnits="userSpaceOnUse" id="clipPath11">
      <path d="m 115.625,115.625 h 2250 v 2250 h -2250 z" transform="matrix(0.31999999,0,0,0.31999999,0,2.6666667e-5)" clip-rule="evenodd"/>
    </clipPath>
    <clipPath clipPathUnits="userSpaceOnUse" id="clipPath9">
      <path d="M 0,0 H 608 V 901 H 0 Z" transform="matrix(0.22222223,0,0,0.22222223,-0.94363207,-149.16944)"/>
    </clipPath>
    <clipPath clipPathUnits="userSpaceOnUse" id="clipPath14">
      <path d="m 115.625,115.625 h 2250 v 2250 h -2250 z" transform="matrix(0.31999999,0,0,0.31999999,0,2.6666667e-5)" clip-rule="evenodd"/>
    </clipPath>
    <clipPath clipPathUnits="userSpaceOnUse" id="clipPath12">
      <path d="M 0,0 H 591 V 901 H 0 Z" transform="matrix(0.22222223,0,0,0.22222223,-0.81401715,-149.06412)"/>
    </clipPath>
  </defs>
  <g clip-path="url(#clipPath11)">
    <path d="m 52.245072,-140.13678 h 12.217883 c -3.472223,0 -6.377496,1.36718 -8.713108,4.10156 -2.338325,2.73437 -3.504775,5.77257 -3.504775,9.11458 v 87.879781 c 0,2.403429 -0.800239,4.508464 -2.398003,6.315104 -1.600478,1.801216 -3.369141,3.569879 -5.30599,5.30599 -1.931424,1.730686 -3.700087,3.531901 -5.30599,5.403646 -1.600477,1.86632 -2.398004,4.134115 -2.398004,6.803386 0,3.472222 1.665582,6.4426001 5.002171,8.9084205 3.333876,2.4685331 7.069228,4.2371963 11.208768,5.30598978 C 47.845115,-2.1973245 43.043683,-4.1667256 38.638301,-6.9011007 34.232919,-9.6409012 30.427037,-13.012755 27.22337,-17.013948 c -3.206381,-4.006619 -5.707466,-8.477106 -7.508681,-13.411459 -1.801215,-4.939779 -2.701823,-10.1454 -2.701823,-15.61415 v -80.881083 c 0,-3.34201 -1.169162,-6.38021 -3.504775,-9.11458 -2.338324,-2.73438 -5.1730683,-4.10156 -8.5069443,-4.10156 z m 76.475698,0 c -3.19824,0 -6.26628,0.70258 -9.20139,2.10503 -2.93783,1.39703 -5.50944,3.26335 -7.71484,5.59896 -2.19998,2.33832 -3.93609,5.04286 -5.20834,8.11632 -1.26682,3.06803 -1.89887,6.20388 -1.89887,9.40755 0,-3.20367 -0.67003,-6.33952 -2.00738,-9.40755 -1.33192,-3.07346 -3.100583,-5.778 -5.305987,-8.11632 -2.199978,-2.33561 -4.76888,-4.20193 -7.703993,-5.59896 -2.929688,-1.40245 -5.997722,-2.10503 -9.20139,-2.10503 z m 0,0" style="fill:#000000;fill-opacity:1;fill-rule:nonzero;stroke:none" transform="matrix(1.4399999,0,0,1.4399999,243.27882,482.00399)" clip-path="url(#clipPath9)"/>
  </g>
  <g clip-path="url(#clipPath14)">
    <path d="m 82.876533,-13.215919 c 0,3.342014 1.166449,6.3802086 3.504774,9.1145837 2.335612,2.7343751 5.170356,4.10156264759 8.506945,4.10156264759 H 35.437295 c 3.464084,0 6.33138,-1.36718754759 8.604601,-4.10156264759 2.270508,-2.7343751 3.407118,-5.7725697 3.407118,-9.1145837 V -140.1365 H 82.876533 Z M 43.043632,-140.1365 c -5.0727,0.53711 -9.643555,1.87175 -13.715279,4.00391 -4.074436,2.13487 -7.712131,4.90451 -10.915799,8.31163 -3.198242,3.40169 -5.900065,7.26997 -8.105469,11.61025 -2.1999781,4.33485 -3.9686414,8.97081 -5.3059896,13.91059 v -37.83638 z m 82.280818,0 v 37.83638 c -1.20171,-4.93978 -2.93782,-9.57574 -5.20833,-13.91059 -2.27322,-4.34028 -4.97776,-8.20856 -8.11632,-11.61025 -3.13314,-3.40712 -6.76812,-6.17676 -10.90495,-8.31163 -4.139541,-2.13216 -8.675131,-3.4668 -13.606772,-4.00391 z m 0,0" style="fill:#000000;fill-opacity:1;fill-rule:nonzero;stroke:none" transform="matrix(1.4399999,0,0,1.4399999,351.89217,526.97233)" clip-path="url(#clipPath12)"/>
  </g>
</svg>
