<?xml version='1.0' encoding='UTF-8' standalone='no'?>
<!-- Created with Inkscape (http://www.inkscape.org/) -->
<svg xmlns:inkscape="http://www.inkscape.org/namespaces/inkscape" xmlns:sodipodi="http://sodipodi.sourceforge.net/DTD/sodipodi-0.dtd" xmlns="http://www.w3.org/2000/svg" xmlns:svg="http://www.w3.org/2000/svg" version="1.1" id="svg1" width="1000" height="970" viewBox="210 215 363 352" sodipodi:docname="UT new logo.pdf">
  <defs id="defs1">
    <clipPath clipPathUnits="userSpaceOnUse" id="clipPath5">
      <path d="M 0,115.625 H 2481.25 V 3393.75 H 0 Z" transform="matrix(0.31999999,0,0,0.31999999,0,-36.999998)" clip-rule="evenodd" id="path5"/>
    </clipPath>
    <clipPath clipPathUnits="userSpaceOnUse" id="clipPath7">
      <path d="m 115.625,115.625 h 2250 v 2250 h -2250 z" transform="matrix(0.31999999,0,0,0.31999999,0,-36.999998)" clip-rule="evenodd" id="path7"/>
    </clipPath>
    <clipPath clipPathUnits="userSpaceOnUse" id="clipPath9">
      <path d="M 0,0 H 608 V 901 H 0 Z" transform="matrix(0.22222223,0,0,0.22222223,-0.94363207,-149.16944)" id="path9"/>
    </clipPath>
    <clipPath clipPathUnits="userSpaceOnUse" id="clipPath11">
      <path d="m 115.625,115.625 h 2250 v 2250 h -2250 z" transform="matrix(0.31999999,0,0,0.31999999,0,2.6666667e-5)" clip-rule="evenodd" id="path11"/>
    </clipPath>
    <clipPath clipPathUnits="userSpaceOnUse" id="clipPath12">
      <path d="M 0,0 H 591 V 901 H 0 Z" transform="matrix(0.22222223,0,0,0.22222223,-0.81401715,-149.06412)" id="path12"/>
    </clipPath>
    <clipPath clipPathUnits="userSpaceOnUse" id="clipPath14">
      <path d="m 115.625,115.625 h 2250 v 2250 h -2250 z" transform="matrix(0.31999999,0,0,0.31999999,0,2.6666667e-5)" clip-rule="evenodd" id="path14"/>
    </clipPath>
    <clipPath clipPathUnits="userSpaceOnUse" id="clipPath15">
      <path d="M 0,0 H 445 V 61 H 0 Z" transform="matrix(0.26588069,0,0,0.26588069,-0.72602557,-12.135696)" id="path15"/>
    </clipPath>
    <clipPath clipPathUnits="userSpaceOnUse" id="clipPath17">
      <path d="m 115.625,115.625 h 2250 v 2250 h -2250 z" transform="matrix(0.31999999,0,0,0.31999999,0,2.6666667e-5)" clip-rule="evenodd" id="path17"/>
    </clipPath>
    <clipPath clipPathUnits="userSpaceOnUse" id="clipPath18">
      <path d="M 0,0 H 211 V 61 H 0 Z" transform="matrix(0.26588069,0,0,0.26588069,-0.41322742,-12.169322)" id="path18"/>
    </clipPath>
    <clipPath clipPathUnits="userSpaceOnUse" id="clipPath20">
      <path d="m 115.625,115.625 h 2250 v 2250 h -2250 z" transform="matrix(0.31999999,0,0,0.31999999,0,2.6666667e-5)" clip-rule="evenodd" id="path20"/>
    </clipPath>
  </defs>
  <sodipodi:namedview id="namedview1" pagecolor="#ffffff" bordercolor="#000000" borderopacity="0.25" inkscape:showpageshadow="2" inkscape:pageopacity="0.0" inkscape:pagecheckerboard="0" inkscape:deskcolor="#d1d1d1">
    <inkscape:page x="0" y="-2.6666667e-05" inkscape:label="1" id="page1" width="794" height="1122.5601" margin="0" bleed="0"/>
  </sodipodi:namedview>
  <g id="g1" inkscape:groupmode="layer" inkscape:label="1" transform="translate(0,-2.6666667e-5)">
    <g id="g2">
      </g>
    <g id="g3">
      </g>
    <g id="g7">
      </g>
    <g id="g10" clip-path="url(#clipPath11)">
      <path d="m 52.245072,-140.13678 h 12.217883 c -3.472223,0 -6.377496,1.36718 -8.713108,4.10156 -2.338325,2.73437 -3.504775,5.77257 -3.504775,9.11458 v 87.879781 c 0,2.403429 -0.800239,4.508464 -2.398003,6.315104 -1.600478,1.801216 -3.369141,3.569879 -5.30599,5.30599 -1.931424,1.730686 -3.700087,3.531901 -5.30599,5.403646 -1.600477,1.86632 -2.398004,4.134115 -2.398004,6.803386 0,3.472222 1.665582,6.4426001 5.002171,8.9084205 3.333876,2.4685331 7.069228,4.2371963 11.208768,5.30598978 C 47.845115,-2.1973245 43.043683,-4.1667256 38.638301,-6.9011007 34.232919,-9.6409012 30.427037,-13.012755 27.22337,-17.013948 c -3.206381,-4.006619 -5.707466,-8.477106 -7.508681,-13.411459 -1.801215,-4.939779 -2.701823,-10.1454 -2.701823,-15.61415 v -80.881083 c 0,-3.34201 -1.169162,-6.38021 -3.504775,-9.11458 -2.338324,-2.73438 -5.1730683,-4.10156 -8.5069443,-4.10156 z m 76.475698,0 c -3.19824,0 -6.26628,0.70258 -9.20139,2.10503 -2.93783,1.39703 -5.50944,3.26335 -7.71484,5.59896 -2.19998,2.33832 -3.93609,5.04286 -5.20834,8.11632 -1.26682,3.06803 -1.89887,6.20388 -1.89887,9.40755 0,-3.20367 -0.67003,-6.33952 -2.00738,-9.40755 -1.33192,-3.07346 -3.100583,-5.778 -5.305987,-8.11632 -2.199978,-2.33561 -4.76888,-4.20193 -7.703993,-5.59896 -2.929688,-1.40245 -5.997722,-2.10503 -9.20139,-2.10503 z m 0,0" style="fill:#000000;fill-opacity:1;fill-rule:nonzero;stroke:none" aria-label="U" transform="matrix(1.4399999,0,0,1.4399999,243.27882,482.00399)" clip-path="url(#clipPath9)" id="path10"/>
    </g>
    <g id="g13" clip-path="url(#clipPath14)">
      <path d="m 82.876533,-13.215919 c 0,3.342014 1.166449,6.3802086 3.504774,9.1145837 2.335612,2.7343751 5.170356,4.10156264759 8.506945,4.10156264759 H 35.437295 c 3.464084,0 6.33138,-1.36718754759 8.604601,-4.10156264759 2.270508,-2.7343751 3.407118,-5.7725697 3.407118,-9.1145837 V -140.1365 H 82.876533 Z M 43.043632,-140.1365 c -5.0727,0.53711 -9.643555,1.87175 -13.715279,4.00391 -4.074436,2.13487 -7.712131,4.90451 -10.915799,8.31163 -3.198242,3.40169 -5.900065,7.26997 -8.105469,11.61025 -2.1999781,4.33485 -3.9686414,8.97081 -5.3059896,13.91059 v -37.83638 z m 82.280818,0 v 37.83638 c -1.20171,-4.93978 -2.93782,-9.57574 -5.20833,-13.91059 -2.27322,-4.34028 -4.97776,-8.20856 -8.11632,-11.61025 -3.13314,-3.40712 -6.76812,-6.17676 -10.90495,-8.31163 -4.139541,-2.13216 -8.675131,-3.4668 -13.606772,-4.00391 z m 0,0" style="fill:#000000;fill-opacity:1;fill-rule:nonzero;stroke:none" aria-label="T" transform="matrix(1.4399999,0,0,1.4399999,351.89217,526.97233)" clip-path="url(#clipPath12)" id="path13"/>
    </g>
    <g id="g16" clip-path="url(#clipPath17)">
      <path d="m 4.0506264,0.14127675 c -0.6166666,0 -1.168421,-0.12333334 -1.6617543,-0.36350877 C 1.8955387,-0.46240746 1.4995738,-0.83240745 1.2074686,-1.3257408 0.91211769,-1.8255653 0.76606506,-2.4584601 0.76606506,-3.2211794 V -8.4011793 H 2.2979949 v 5.1929824 c 0,0.6588596 0.1557894,1.1489474 0.4673684,1.4670175 0.3180702,0.3213158 0.7594737,0.4803509 1.3242105,0.4803509 0.5517544,0 0.9899123,-0.1590351 1.3112281,-0.4803509 0.3180701,-0.3180701 0.4803508,-0.8081579 0.4803508,-1.4670175 v -5.1929824 h 1.5319298 v 5.1799999 c 0,0.7627193 -0.1525438,1.3956141 -0.4543859,1.8954386 C 6.6536089,-0.83240745 6.2479071,-0.46240746 5.7383457,-0.22223202 5.2255387,0.01794341 4.6640475,0.14127675 4.0506264,0.14127675 Z M 14.712468,-0.00153027 V -8.4011793 h 1.53193 l 3.946667,5.9199999 v -5.9199999 h 1.53193 v 8.39964903 h -1.53193 L 16.244398,-5.9085478 v 5.90701753 z m 14.37807,0 V -8.4011793 h 1.53193 v 8.39964903 z m 11.320702,0 -3.06386,-8.39964903 h 1.63579 l 2.375789,6.8287719 2.388772,-6.8287719 h 1.622807 l -3.076842,8.39964903 z m 11.68421,0 V -8.4011793 h 5.478597 V -7.167846 H 53.62738 v 2.3108772 h 3.583158 v 1.1943859 H 53.62738 v 2.4277193 h 3.946667 v 1.23333333 z m 12.657895,0 V -8.4011793 h 3.076842 c 0.675088,0 1.226842,0.1168421 1.661755,0.3505263 0.441403,0.227193 0.76921,0.5322807 0.986666,0.9217544 0.214211,0.3829824 0.324562,0.8114035 0.324562,1.2852631 0,0.512807 -0.136316,0.9801755 -0.402457,1.4021053 -0.269386,0.4251754 -0.68807,0.7335087 -1.259298,0.9217544 l 1.739649,3.51824553 H 69.11545 L 67.557556,-3.3120566 h -1.272281 v 3.31052633 z m 1.53193,-4.43999993 h 1.454035 c 0.509561,0 0.882807,-0.1200877 1.116491,-0.3635088 0.240176,-0.2499123 0.363509,-0.5777193 0.363509,-0.9866666 0,-0.395965 -0.116842,-0.7172807 -0.350526,-0.9607018 -0.233685,-0.2401754 -0.616667,-0.3635088 -1.142456,-0.3635088 H 66.285275 Z M 80.82238,0.14127675 c -0.616667,0 -1.16193,-0.10385965 -1.635789,-0.31157895 -0.477106,-0.21421052 -0.850351,-0.51929824 -1.116492,-0.9087719 -0.269386,-0.3959649 -0.408947,-0.882807 -0.415438,-1.4540351 h 1.609824 c 0.01623,0.3894737 0.159035,0.7205263 0.428421,0.9866667 0.266141,0.2693859 0.639386,0.4024561 1.116492,0.4024561 0.405701,0 0.727017,-0.094123 0.960701,-0.285614 0.240176,-0.1979825 0.363509,-0.4608772 0.363509,-0.7919298 0,-0.3440351 -0.110351,-0.6134211 -0.324561,-0.8049123 -0.20772,-0.1882456 -0.490088,-0.3440351 -0.84386,-0.4673684 -0.347281,-0.1200878 -0.720526,-0.2466667 -1.116491,-0.3764913 -0.649123,-0.2239473 -1.148948,-0.512807 -1.492983,-0.8698245 -0.337543,-0.3537719 -0.506315,-0.8211404 -0.506315,-1.4021053 0,-0.4933333 0.120087,-0.9152631 0.363508,-1.2722806 0.240176,-0.3635088 0.574474,-0.639386 0.999649,-0.8308772 0.42193,-0.1979825 0.912018,-0.2985965 1.467018,-0.2985965 0.551754,0 1.041842,0.100614 1.467018,0.2985965 0.431666,0.201228 0.76921,0.4803508 1.012631,0.8438596 0.240176,0.3570175 0.37,0.7854386 0.389474,1.2852632 h -1.63579 c -0.0097,-0.2921053 -0.126579,-0.5517544 -0.350526,-0.7789474 -0.217456,-0.2336842 -0.519298,-0.3505263 -0.908772,-0.3505263 -0.337544,-0.00649 -0.623158,0.074649 -0.856842,0.2466666 -0.227193,0.1752632 -0.337544,0.4251755 -0.337544,0.7529825 0,0.2791228 0.08439,0.4998245 0.259649,0.6621052 0.181755,0.1655264 0.42193,0.3050878 0.727018,0.4154386 0.301842,0.1135965 0.649123,0.2304386 1.038596,0.3505264 0.415439,0.1492982 0.795176,0.3180701 1.142456,0.5063157 0.344035,0.1914913 0.623158,0.4478948 0.830878,0.7659649 0.207719,0.311579 0.311579,0.7205263 0.311579,1.2203509 0,0.4414035 -0.113597,0.8503509 -0.337544,1.2203509 -0.227193,0.37324558 -0.558246,0.67508768 -0.999649,0.90877189 -0.434913,0.22394737 -0.970439,0.33754386 -1.609825,0.33754386 z m 9.473947,-0.14280702 3.076842,-8.39964903 h 1.726667 l 3.06386,8.39964903 H 96.540889 L 95.865801,-1.9488987 h -3.271579 l -0.68807,1.94736843 z m 2.713334,-3.14175433 h 2.440701 l -1.233333,-3.4922807 z m 11.969829,3.14175433 V -8.4011793 h 1.53192 v 7.2052631 h 3.72597 v 1.19438593 z m 0,0" style="fill:#000000;fill-opacity:1;fill-rule:nonzero;stroke:none" aria-label="UNIVERSAL" transform="matrix(1.2035473,0,0,1.2035473,387.75379,265.1659)" clip-path="url(#clipPath15)" id="path16"/>
    </g>
    <g id="g19" clip-path="url(#clipPath20)">
      <path d="M 2.7657999,2.8713342e-5 V -7.166287 H 0.3250982 V -8.3996203 H 6.7643964 V -7.166287 H 4.3107122 V 2.8713342e-5 Z M 17.569045,0.14283573 c -0.840614,0 -1.577368,-0.18175438 -2.207017,-0.54526315 -0.623158,-0.37 -1.113246,-0.88280698 -1.467018,-1.53192978 -0.357017,-0.6556141 -0.53228,-1.4085965 -0.53228,-2.2589474 0,-0.8568421 0.175263,-1.6098245 0.53228,-2.2589473 0.353772,-0.655614 0.84386,-1.1684211 1.467018,-1.5319298 0.629649,-0.37 1.366403,-0.5582456 2.207017,-0.5582456 0.830878,0 1.561141,0.1882456 2.194035,0.5582456 0.62965,0.3635087 1.119737,0.8763158 1.467018,1.5319298 0.353772,0.6491228 0.532281,1.4021052 0.532281,2.2589473 0,0.8503509 -0.178509,1.6033333 -0.532281,2.2589474 -0.347281,0.6491228 -0.837368,1.16192978 -1.467018,1.53192978 -0.632894,0.36350877 -1.363157,0.54526315 -2.194035,0.54526315 z m 0,-1.37614033 c 0.795176,0 1.431316,-0.2628947 1.908421,-0.7919298 0.47386,-0.5257895 0.714036,-1.2495614 0.714036,-2.1680702 0,-0.925 -0.240176,-1.6520175 -0.714036,-2.1810526 -0.477105,-0.5257895 -1.113245,-0.7919298 -1.908421,-0.7919298 -0.798421,0 -1.437807,0.2661403 -1.921403,0.7919298 -0.477105,0.5290351 -0.714035,1.2560526 -0.714035,2.1810526 0,0.9185088 0.23693,1.6422807 0.714035,2.1680702 0.483596,0.5290351 1.122982,0.7919298 1.921403,0.7919298 z M 28.8508,2.8713342e-5 V -8.3996203 h 1.531929 l 3.946667,5.9199999 v -5.9199999 h 1.53193 V 2.8713342e-5 h -1.53193 L 30.382729,-5.9069888 V 2.8713342e-5 Z m 14.374824,0 V -8.3996203 h 5.478597 v 1.2333333 h -3.946667 v 2.3108772 h 3.583158 v 1.1943859 h -3.583158 v 2.4277193 h 3.946667 V 2.8713342e-5 Z m 0,0" style="fill:#000000;fill-opacity:1;fill-rule:nonzero;stroke:none" aria-label="TONE" transform="matrix(1.2035473,0,0,1.2035473,450.41732,296.56637)" clip-path="url(#clipPath18)" id="path19"/>
    </g>
  </g>
</svg>
